<mxfile host="app.diagrams.net" modified="2022-11-29T15:57:51.009Z" agent="5.0 (Windows NT 10.0; Win64; x64) AppleWebKit/537.36 (KHTML, like Gecko) Chrome/107.0.0.0 Safari/537.36" etag="rPrluRcDPkglgq4Migmw" version="20.6.0" type="github">
  <diagram id="Skd8S8NB9uOjpBgUyCvr" name="Trang-1">
    <mxGraphModel dx="1038" dy="585" grid="1" gridSize="10" guides="1" tooltips="1" connect="1" arrows="1" fold="1" page="1" pageScale="1" pageWidth="827" pageHeight="1169" math="0" shadow="0">
      <root>
        <mxCell id="0" />
        <mxCell id="1" parent="0" />
        <mxCell id="yINykELoEmSD7zLPjrHq-1" value="" style="rounded=0;whiteSpace=wrap;html=1;" parent="1" vertex="1">
          <mxGeometry x="210" y="90" width="420" height="40" as="geometry" />
        </mxCell>
        <mxCell id="yINykELoEmSD7zLPjrHq-3" value="" style="endArrow=none;html=1;rounded=0;exitX=0.25;exitY=1;exitDx=0;exitDy=0;entryX=0.25;entryY=0;entryDx=0;entryDy=0;" parent="1" source="yINykELoEmSD7zLPjrHq-1" target="yINykELoEmSD7zLPjrHq-1" edge="1">
          <mxGeometry width="50" height="50" relative="1" as="geometry">
            <mxPoint x="260" y="160" as="sourcePoint" />
            <mxPoint x="310" y="110" as="targetPoint" />
          </mxGeometry>
        </mxCell>
        <mxCell id="yINykELoEmSD7zLPjrHq-4" value="" style="endArrow=none;html=1;rounded=0;entryX=0.5;entryY=0;entryDx=0;entryDy=0;exitX=0.5;exitY=1;exitDx=0;exitDy=0;" parent="1" source="yINykELoEmSD7zLPjrHq-1" target="yINykELoEmSD7zLPjrHq-1" edge="1">
          <mxGeometry width="50" height="50" relative="1" as="geometry">
            <mxPoint x="380" y="290" as="sourcePoint" />
            <mxPoint x="430" y="240" as="targetPoint" />
            <Array as="points" />
          </mxGeometry>
        </mxCell>
        <mxCell id="yINykELoEmSD7zLPjrHq-6" value="" style="endArrow=none;html=1;rounded=0;exitX=0.75;exitY=0;exitDx=0;exitDy=0;entryX=0.75;entryY=1;entryDx=0;entryDy=0;" parent="1" source="yINykELoEmSD7zLPjrHq-1" target="yINykELoEmSD7zLPjrHq-1" edge="1">
          <mxGeometry width="50" height="50" relative="1" as="geometry">
            <mxPoint x="380" y="290" as="sourcePoint" />
            <mxPoint x="430" y="240" as="targetPoint" />
            <Array as="points" />
          </mxGeometry>
        </mxCell>
        <mxCell id="yINykELoEmSD7zLPjrHq-7" value="10000000" style="text;html=1;strokeColor=none;fillColor=none;align=center;verticalAlign=middle;whiteSpace=wrap;rounded=0;" parent="1" vertex="1">
          <mxGeometry x="220" y="95" width="93" height="30" as="geometry" />
        </mxCell>
        <mxCell id="yINykELoEmSD7zLPjrHq-13" value="" style="endArrow=classic;html=1;rounded=0;entryX=0.385;entryY=1.095;entryDx=0;entryDy=0;entryPerimeter=0;" parent="1" target="yINykELoEmSD7zLPjrHq-1" edge="1">
          <mxGeometry width="50" height="50" relative="1" as="geometry">
            <mxPoint x="372" y="160" as="sourcePoint" />
            <mxPoint x="430" y="240" as="targetPoint" />
          </mxGeometry>
        </mxCell>
        <mxCell id="yINykELoEmSD7zLPjrHq-15" value="11001000" style="text;html=1;strokeColor=none;fillColor=none;align=center;verticalAlign=middle;whiteSpace=wrap;rounded=0;fontFamily=Helvetica;" parent="1" vertex="1">
          <mxGeometry x="320" y="95" width="100" height="30" as="geometry" />
        </mxCell>
        <mxCell id="yINykELoEmSD7zLPjrHq-16" value="0000000" style="text;html=1;strokeColor=none;fillColor=none;align=center;verticalAlign=middle;whiteSpace=wrap;rounded=0;fontFamily=Helvetica;" parent="1" vertex="1">
          <mxGeometry x="420" y="95" width="100" height="30" as="geometry" />
        </mxCell>
        <mxCell id="yINykELoEmSD7zLPjrHq-17" value="0000000" style="text;html=1;strokeColor=none;fillColor=none;align=center;verticalAlign=middle;whiteSpace=wrap;rounded=0;fontFamily=Helvetica;" parent="1" vertex="1">
          <mxGeometry x="530" y="95" width="100" height="30" as="geometry" />
        </mxCell>
        <mxCell id="yINykELoEmSD7zLPjrHq-18" value="*c = &#39;3&#39;&lt;br&gt;//50" style="text;html=1;strokeColor=none;fillColor=none;align=center;verticalAlign=middle;whiteSpace=wrap;rounded=0;fontFamily=Helvetica;" parent="1" vertex="1">
          <mxGeometry x="340" y="160" width="60" height="30" as="geometry" />
        </mxCell>
      </root>
    </mxGraphModel>
  </diagram>
</mxfile>
